<?xml version="1.0" standalone="no"?>
<!DOCTYPE svg PUBLIC "-//W3C//DTD SVG 20010904//EN"
 "http://www.w3.org/TR/2001/REC-SVG-20010904/DTD/svg10.dtd">
<svg version="1.0" xmlns="http://www.w3.org/2000/svg"
 width="512.000000pt" height="512.000000pt" viewBox="0 0 512.000000 512.000000"
 preserveAspectRatio="xMidYMid meet">
<metadata>
Created by potrace 1.11, written by Peter Selinger 2001-2013
</metadata>
<g transform="translate(0.000000,512.000000) scale(0.100000,-0.100000)"
fill="#000000" stroke="none">
<path d="M3059 3848 c0 -13 -2 -32 -4 -43 -3 -11 -7 -36 -9 -55 -3 -19 -15
-93 -26 -165 -12 -71 -23 -144 -26 -161 l-5 -30 96 -15 c64 -10 95 -12 96 -5
0 6 2 18 4 28 2 13 -9 18 -57 23 l-60 7 7 55 c3 30 8 60 10 66 2 7 7 30 10 52
3 22 10 69 16 105 21 134 22 142 8 151 -8 5 -24 9 -36 9 -17 0 -23 -6 -24 -22z"/>
<path d="M2388 3807 c-2 -35 -7 -51 -15 -49 -21 4 -15 -45 6 -51 15 -4 19 -16
21 -73 2 -60 7 -155 9 -176 3 -24 44 -48 81 -48 36 0 40 3 40 25 0 14 -4 26
-10 26 -5 1 -14 2 -19 3 -23 3 -29 28 -34 137 l-4 115 26 0 c38 -1 37 38 -1
42 -24 3 -28 8 -29 35 -2 61 -3 62 -36 64 -32 1 -32 1 -35 -50z"/>
<path d="M1814 3804 c-76 -31 -87 -85 -49 -239 34 -144 42 -164 79 -202 24
-26 38 -33 68 -33 93 0 146 57 135 144 -9 69 -14 76 -48 64 -32 -11 -33 -15
-20 -70 11 -48 -8 -78 -49 -78 -41 0 -53 23 -89 167 -35 139 -37 165 -15 187
37 38 87 9 99 -56 7 -35 9 -37 34 -32 39 10 42 14 36 37 -31 111 -91 148 -181
111z"/>
<path d="M2635 3758 c-33 -17 -45 -40 -45 -81 0 -36 6 -46 60 -98 60 -58 72
-86 46 -108 -20 -17 -52 1 -60 34 -5 21 -11 25 -29 19 -30 -9 -30 -9 -22 -42
9 -41 38 -65 82 -67 66 -5 102 26 103 86 0 40 -22 74 -82 128 -40 35 -47 61
-24 80 19 16 43 4 50 -25 7 -25 21 -30 45 -15 15 10 9 35 -17 69 -20 26 -76
36 -107 20z"/>
<path d="M2237 3742 c-25 -3 -28 -7 -23 -30 3 -15 8 -49 11 -77 6 -48 9 -69
20 -136 6 -35 -8 -59 -36 -59 -20 0 -33 37 -44 130 -3 30 -9 73 -12 95 -3 22
-6 45 -6 51 0 10 -55 9 -65 -1 -2 -2 2 -39 8 -82 6 -43 14 -94 16 -113 14
-113 26 -140 61 -140 28 0 73 20 73 33 0 5 6 4 14 -2 17 -14 72 -11 70 4 -1 6
-5 33 -8 60 -4 28 -8 61 -11 75 -2 14 -6 41 -9 60 -19 146 -16 138 -59 132z"/>
<path d="M3344 3673 c-12 -2 -29 -12 -37 -21 -18 -20 -33 -72 -21 -72 5 0 18
-3 30 -6 15 -4 23 1 32 20 12 27 45 35 57 15 4 -6 4 -25 1 -43 -6 -31 -10 -34
-51 -39 -99 -14 -147 -89 -105 -166 6 -12 14 -21 18 -22 4 0 16 -2 27 -4 11
-2 30 3 43 11 20 13 22 13 22 -5 0 -12 9 -21 26 -25 15 -4 27 -6 29 -4 5 7 57
235 59 263 2 17 -2 40 -7 52 -14 31 -75 54 -123 46z m40 -210 c-13 -54 -23
-70 -43 -76 -32 -8 -47 27 -26 59 14 22 45 41 68 43 4 1 4 -11 1 -26z"/>
<path d="M3569 3609 c0 -8 -2 -23 -5 -34 -23 -117 -49 -287 -44 -295 3 -5 17
-11 30 -12 20 -3 31 10 74 84 28 48 55 91 60 95 5 4 7 4 4 -2 -3 -5 -9 -32
-12 -60 -12 -88 -17 -120 -22 -136 -3 -10 6 -20 23 -28 30 -14 25 -18 78 79
112 203 117 213 103 221 -23 15 -46 10 -55 -13 -14 -39 -84 -170 -88 -166 -2
2 0 21 5 43 5 22 12 67 15 100 4 33 8 63 11 66 2 3 -7 11 -21 17 -28 13 -27
15 -89 -100 -43 -80 -62 -109 -51 -75 2 6 6 28 9 47 3 19 8 46 11 60 14 66 17
110 7 110 -6 0 -17 3 -26 6 -10 4 -16 1 -17 -7z"/>
<path d="M1468 3553 c-23 -6 -22 -19 2 -129 11 -49 20 -95 20 -103 0 -8 -25
26 -55 75 -30 49 -59 95 -64 103 -7 11 -13 10 -40 -3 -23 -12 -28 -20 -20 -29
29 -34 199 -282 199 -292 0 -7 -11 -17 -25 -23 -18 -8 -23 -16 -18 -29 11 -32
13 -33 48 -16 50 24 58 56 40 167 -8 50 -17 109 -20 131 -3 22 -10 64 -15 94
-6 30 -10 56 -10 58 0 4 -20 2 -42 -4z"/>
<path d="M1123 3508 c-27 -13 -28 -22 -4 -68 16 -30 17 -36 4 -45 -20 -15 -6
-47 17 -40 15 5 28 -15 75 -110 31 -63 65 -120 76 -125 21 -12 57 -7 87 11 16
10 18 17 10 35 -9 19 -15 21 -34 14 -28 -11 -25 -15 -85 110 l-46 95 23 20
c20 17 21 23 11 37 -9 11 -18 14 -28 7 -25 -16 -37 -10 -53 31 -17 43 -19 44
-53 28z"/>
<path d="M3889 3373 c-28 -60 -62 -129 -75 -154 l-23 -47 31 -15 30 -15 60
122 c33 66 64 124 70 127 18 11 48 -3 48 -21 0 -10 -25 -68 -55 -129 -30 -61
-55 -115 -55 -121 0 -11 37 -33 50 -28 12 4 128 242 134 274 7 37 -25 64 -74
64 -28 0 -38 4 -34 13 4 11 -32 37 -51 37 -3 0 -28 -48 -56 -107z"/>
<path d="M939 3432 c-25 -16 -26 -18 -11 -49 15 -31 15 -31 47 -16 l33 16 -20
33 c-11 19 -21 34 -21 33 -1 0 -14 -8 -28 -17z"/>
<path d="M766 3345 c-18 -14 -17 -18 36 -102 30 -48 86 -138 124 -200 38 -62
74 -112 80 -113 7 0 21 8 32 18 20 17 18 20 -103 212 -68 107 -129 196 -137
197 -7 2 -22 -4 -32 -12z"/>
<path d="M4386 3332 c-32 -19 -157 -190 -186 -255 -11 -23 -20 -53 -20 -65 0
-57 74 -122 139 -122 25 0 42 11 76 46 25 25 45 52 45 59 0 7 -11 20 -24 29
-24 15 -26 15 -48 -17 -44 -63 -74 -72 -107 -31 -15 19 -18 31 -11 48 14 39
160 245 181 256 14 8 27 6 49 -5 37 -19 39 -47 5 -97 l-24 -36 24 -16 c34 -23
39 -21 64 25 43 77 26 141 -49 179 -48 24 -76 25 -114 2z"/>
<path d="M992 3323 l-21 -18 82 -147 c45 -82 85 -148 88 -148 4 0 17 8 29 18
l23 18 -80 144 c-43 79 -84 145 -89 147 -6 2 -20 -4 -32 -14z"/>
<path d="M3063 3169 c-22 -8 -50 -80 -55 -141 -2 -22 -7 -28 -28 -29 -14 0
-32 -2 -40 -3 -8 -2 -40 -6 -70 -10 -79 -9 -114 -16 -124 -26 -17 -16 25 -24
137 -24 l108 -1 -3 -34 -3 -33 -135 -2 c-166 -1 -190 -11 -190 -79 0 -69 7
-73 86 -53 38 10 76 19 84 21 98 22 225 56 231 62 4 5 10 38 14 75 3 37 7 75
9 85 4 22 18 128 21 165 3 31 -10 39 -42 27z"/>
<path d="M690 3122 c-72 -32 -99 -101 -60 -151 15 -20 15 -20 40 -1 22 17 23
20 11 44 -11 21 -12 28 -1 41 17 21 27 19 56 -10 l25 -25 -26 -49 c-29 -58
-32 -97 -9 -131 26 -38 45 -50 80 -50 36 0 64 29 64 64 0 15 3 17 12 8 8 -8
18 -7 38 5 l28 16 -85 109 c-106 135 -126 151 -173 130z m130 -187 c25 -41 23
-69 -6 -73 -31 -4 -53 35 -42 76 11 41 21 40 48 -3z"/>
<path d="M4580 3063 c-8 -3 -25 -15 -38 -26 l-22 -21 21 -22 21 -23 29 21 c22
17 31 19 43 9 17 -15 16 -28 -8 -63 -15 -24 -21 -26 -39 -16 -12 6 -45 11 -74
12 -47 0 -57 -3 -85 -31 -56 -56 -31 -139 39 -131 27 3 30 1 23 -13 -7 -12 -3
-22 13 -37 l23 -22 42 58 c23 31 53 69 67 84 39 42 75 99 75 119 0 36 -24 69
-65 89 -23 11 -43 20 -46 19 -2 0 -11 -3 -19 -6z m-23 -179 c19 -5 20 -8 8
-21 -8 -7 -20 -22 -28 -33 -12 -17 -28 -24 -54 -21 -22 2 -15 49 9 65 25 18
32 19 65 10z"/>
<path d="M2337 3024 c-9 -10 -4 -22 201 -444 41 -85 75 -164 74 -174 -1 -20
-21 -38 -33 -30 -11 6 -20 -12 -26 -49 -10 -65 0 -62 -245 -61 l-223 1 -190
81 c-180 76 -191 79 -217 66 -66 -34 -76 -163 -13 -164 6 0 27 -5 48 -11 33
-9 37 -13 37 -42 0 -24 -7 -37 -29 -51 -42 -29 -63 -71 -63 -126 0 -60 23
-101 72 -129 130 -73 274 55 216 193 -16 39 -73 86 -104 86 -15 0 -22 6 -22
20 0 24 1 23 164 -15 101 -24 119 -25 426 -25 298 0 320 1 321 18 5 119 82
237 186 289 74 36 195 44 274 18 125 -41 189 -118 228 -270 l11 -40 52 1 c106
2 94 -22 93 197 -1 210 -7 236 -64 270 -42 25 -422 138 -442 132 -9 -3 -27 -8
-38 -10 -35 -6 -304 -75 -338 -86 -18 -6 -34 -17 -34 -25 -1 -8 -2 -17 -3 -21
-2 -5 -6 -29 -10 -55 -5 -27 -12 -48 -16 -48 -4 0 -17 21 -28 48 -11 26 -66
140 -121 255 -77 157 -105 207 -119 207 -10 0 -21 -3 -25 -6z"/>
<path d="M475 2950 c-18 -20 -18 -21 11 -52 50 -54 68 -73 112 -121 23 -25 42
-52 42 -59 0 -17 -20 -38 -35 -38 -5 0 -48 42 -94 93 -101 110 -106 114 -132
91 -10 -9 -19 -20 -19 -23 0 -3 21 -28 47 -56 25 -27 67 -73 93 -101 25 -28
58 -59 73 -69 25 -16 29 -16 52 -1 14 9 28 30 32 47 4 22 10 28 21 24 8 -3 25
4 38 16 l23 22 -93 101 c-51 56 -101 111 -112 124 -23 27 -36 28 -59 2z"/>
<path d="M4687 2781 l-116 -118 24 -23 25 -24 94 92 c51 51 99 92 105 92 7 0
23 -11 36 -24 l24 -24 22 24 c18 19 20 26 9 39 -7 8 -26 15 -42 15 -26 0 -29
2 -18 15 10 13 10 19 -5 35 -10 11 -23 20 -30 20 -6 0 -64 -53 -128 -119z"/>
<path d="M175 2822 c-32 -7 -85 -51 -102 -87 -28 -58 -12 -99 70 -178 163
-157 223 -184 299 -132 28 19 50 25 91 25 63 0 71 5 51 34 -9 14 -25 21 -46
21 -28 0 -32 3 -34 33 -4 51 -33 87 -154 192 -87 76 -134 100 -175 92z m46
-80 c27 -17 167 -141 201 -176 32 -35 18 -89 -27 -100 -30 -8 -40 -2 -137 85
-39 35 -79 70 -90 77 -25 18 -50 70 -42 85 28 49 53 57 95 29z"/>
<path d="M4920 2697 c-41 -23 -127 -100 -154 -139 -27 -38 -20 -80 18 -117 31
-30 39 -33 75 -28 22 3 49 13 59 23 20 19 20 19 1 42 -18 23 -19 23 -48 6 -64
-38 -82 12 -23 68 l37 35 40 -48 c22 -26 45 -48 50 -48 19 -2 85 74 94 106 15
50 -32 107 -97 119 -6 1 -30 -7 -52 -19z m74 -43 c25 -10 19 -50 -10 -73 l-26
-21 -21 27 -21 26 30 23 c16 13 30 24 31 24 1 0 8 -3 17 -6z"/>
<path d="M2964 2396 c-102 -47 -158 -134 -158 -246 -2 -282 373 -377 509 -129
55 102 36 235 -46 317 -53 53 -105 75 -185 78 -56 3 -80 -2 -120 -20z"/>
<path d="M2324 2095 c4 -11 -3 -15 -27 -16 -18 0 -48 -2 -67 -4 -19 -2 -68 -6
-109 -10 -41 -3 -78 -8 -82 -11 -16 -9 3 -33 31 -39 34 -7 58 -33 63 -65 2
-13 12 -25 23 -28 10 -2 128 -6 262 -9 l242 -5 0 29 c0 39 24 70 60 78 25 5
30 11 30 36 l0 29 -80 0 c-64 0 -80 3 -80 15 0 13 -22 15 -136 15 -117 0 -135
-2 -130 -15z"/>
<path d="M2010 1980 c-49 -49 9 -133 70 -100 46 25 44 101 -4 114 -34 9 -45 7
-66 -14z"/>
<path d="M2703 1985 c-49 -34 -14 -119 44 -109 37 7 56 26 56 59 0 50 -59 79
-100 50z"/>
<path d="M433 1755 c-3 -9 -2 -19 2 -23 11 -11 4308 -10 4323 1 9 7 9 13 1 23
-9 11 -367 14 -2165 14 -1936 0 -2155 -1 -2161 -15z"/>
<path d="M1417 1663 c-65 -103 -65 -216 0 -315 15 -22 32 -36 43 -35 18 1 18
2 -1 28 -35 49 -50 100 -51 168 -1 54 4 76 28 121 16 30 30 58 32 63 2 4 -3 7
-12 7 -9 0 -26 -17 -39 -37z"/>
<path d="M2140 1694 c0 -3 9 -17 20 -31 63 -80 59 -253 -7 -325 -9 -10 -13
-21 -9 -25 24 -24 95 93 100 167 2 25 -2 66 -9 92 -14 56 -59 128 -80 128 -8
0 -15 -3 -15 -6z"/>
<path d="M3542 1670 c-80 -18 -120 -101 -99 -205 11 -54 42 -85 84 -85 57 0
88 27 99 84 5 28 -30 86 -53 87 -10 1 -25 2 -33 3 -8 1 -27 -4 -41 -11 -24
-11 -25 -11 -21 17 6 45 45 80 86 80 19 0 37 4 41 9 9 16 -28 28 -63 21z m42
-183 c7 -19 5 -32 -8 -51 -31 -48 -87 -26 -98 37 -5 25 -1 31 25 42 39 16 69
6 81 -28z"/>
<path d="M1559 1642 c-59 -53 -68 -184 -17 -239 31 -33 96 -32 128 2 31 33 33
97 4 126 -26 25 -71 31 -106 13 -26 -14 -26 -13 -18 14 19 63 36 78 94 84 51
5 44 28 -8 28 -36 0 -52 -6 -77 -28z m93 -148 c15 -33 2 -73 -27 -80 -36 -9
-54 1 -69 38 -17 39 -12 54 22 66 36 12 62 4 74 -24z"/>
<path d="M1793 1619 c-77 -30 -83 -199 -9 -239 29 -15 78 -6 100 19 18 20 33
91 28 136 -6 61 -68 105 -119 84z m69 -46 c20 -24 16 -128 -6 -152 -24 -27
-41 -26 -67 0 -18 18 -21 30 -17 85 3 48 9 67 23 78 21 15 49 11 67 -11z"/>
<path d="M2404 1619 c-31 -9 -45 -31 -37 -56 7 -20 33 -15 33 6 0 23 16 30 49
22 52 -13 31 -80 -49 -154 -23 -21 -40 -43 -38 -49 4 -12 138 -15 157 -4 15
10 7 51 -10 51 -8 0 -13 -6 -11 -12 1 -9 -12 -13 -40 -13 l-42 0 36 38 c48 48
71 103 59 136 -6 13 -13 26 -18 29 -20 11 -61 14 -89 6z"/>
<path d="M2586 1621 c-30 -6 -50 -39 -36 -61 9 -15 30 -5 30 16 0 21 69 22 82
0 20 -31 -14 -86 -54 -86 -10 0 -18 -7 -18 -15 0 -10 10 -15 29 -15 52 0 79
-50 46 -83 -21 -22 -67 -30 -98 -18 -23 9 -27 8 -27 -8 0 -22 21 -29 74 -25
67 4 110 42 101 90 -2 11 -4 24 -4 30 -1 6 -12 16 -25 24 -24 13 -25 13 -5 29
66 54 -2 141 -95 122z"/>
<path d="M2783 1618 c-28 -7 -33 -13 -33 -38 0 -20 5 -30 15 -30 8 0 15 8 15
19 0 21 39 33 64 19 36 -20 16 -69 -62 -150 -40 -41 -43 -48 -27 -54 10 -4 33
-7 52 -6 18 0 49 1 69 1 32 1 35 3 32 28 -3 28 -28 45 -28 19 0 -12 -10 -16
-42 -16 l-42 0 42 42 c54 53 72 106 48 143 -9 14 -22 25 -29 26 -6 0 -19 2
-27 3 -8 2 -30 -1 -47 -6z"/>
<path d="M3105 1625 c-5 -2 -22 -6 -37 -9 -23 -5 -28 -12 -28 -36 0 -20 5 -30
15 -30 8 0 15 8 15 19 0 22 35 32 68 20 47 -18 15 -99 -39 -99 -8 0 -16 -7
-16 -15 0 -10 11 -15 33 -15 58 0 79 -62 32 -94 -12 -9 -37 -13 -64 -10 -34 3
-44 0 -44 -11 0 -8 6 -15 13 -16 6 -1 26 -2 42 -4 92 -9 152 82 90 139 l-24
22 21 21 c16 17 19 28 14 56 -4 19 -12 39 -19 45 -14 11 -58 21 -72 17z"/>
<path d="M3734 1623 c-39 -8 -67 -49 -72 -106 -8 -100 41 -161 113 -140 81 23
92 198 14 238 -15 8 -29 14 -31 14 -2 -1 -13 -4 -24 -6z m64 -70 c20 -59 -6
-153 -43 -153 -24 0 -55 37 -56 68 -3 50 0 77 12 99 22 42 70 34 87 -14z"/>
<path d="M1948 1603 c-10 -43 18 -75 29 -33 4 17 14 20 54 20 45 0 62 -11 40
-24 -15 -10 -69 -147 -76 -193 -5 -38 -4 -43 13 -43 15 0 21 12 30 60 6 33 27
94 46 135 20 40 36 78 36 84 0 7 -31 11 -84 11 -71 0 -84 -3 -88 -17z"/>
<path d="M3240 1587 c0 -23 5 -34 15 -34 8 0 15 9 15 19 0 15 8 18 50 18 28 0
50 -2 50 -4 0 -2 -13 -30 -29 -62 -28 -58 -61 -154 -61 -181 0 -7 8 -13 18
-13 14 0 21 15 34 70 9 38 30 97 47 130 46 90 45 90 -54 90 l-85 0 0 -33z"/>
<path d="M2968 1502 c-27 -2 -35 -7 -31 -18 7 -20 83 -20 83 0 0 19 -8 22 -52
18z"/>
<path d="M433 1274 c-3 -9 -1 -19 5 -23 15 -9 4304 -7 4319 2 7 4 10 14 7 22
-5 13 -282 15 -2165 15 -1974 0 -2160 -1 -2166 -16z"/>
</g>
</svg>
